<svg id="Layer_1" data-name="Layer 1" xmlns="http://www.w3.org/2000/svg" viewBox="0 0 397.59 207.18" width="69px" height="auto">
  <defs>
    <style>
      .cls-1{fill:none}
    </style>
  </defs>
  <path fill="#fff" class="cls-1" d="M1040.72 485.28c0-13.2-.1-26.3 0-39.5 0-3.8-.9-6.6-5.5-6.6h-40c-3.4 0-5.4 1.5-5.4 5.1v14.5c0 3.5 1.8 5.2 5.3 5.2 4 0 8 .2 12 0 4.6-.2 6.7 1.8 6.7 6.5q-.15 27 0 54c0 3.7-1.3 6.3-4.7 8A34.83 34.83 0 00993 549c-11.1 23.5-11 47.4-1.2 71.2a41.09 41.09 0 0010.6 14.3c15.4 13.9 49.4 14.3 61.4-17.3 7.5-19.7 6.9-39.9 1-59.9-3.1-10.6-9.2-19.7-19.5-24.9-3.7-1.9-4.5-4.9-4.5-8.7-.1-12.8-.1-25.6-.1-38.4zm207.9.4v-40c0-3.5-.6-6.5-5-6.5h-41c-3.3 0-4.8 2-4.8 5.1v13.5c0 3.5 1.9 5.1 5.3 5.1 3.8 0 7.7 0 11.5.1 6 .1 7 1.1 7 7.1.1 18 0 36 .1 54 0 4.3-1.4 7.1-5.2 9.3a38.75 38.75 0 00-17.1 19.7c-8.6 21.9-8.8 44.1.4 65.7 6.5 15.3 18.6 24.1 35.9 24.1 15.6 0 30.1-10.8 35.9-26.6 6.5-17.8 6.7-35.9 2.1-54.1-3-12-8.8-22.4-19.9-28.8-4.1-2.3-5.4-5.4-5.3-9.8.2-12.6.1-25.2.1-37.9zm-125.9 110.7v35.5c0 6.1 1 7 6.9 7.1 3.5.1 7 0 10.5 0 8.8 0 9.4-.6 9.4-9.3 0-25 .1-50-.1-75-.1-5.8 1.9-9.8 5.7-14.1 4.9-5.7 9.4-12.3 11.9-19.2 6.4-18.1 5.9-36.7.1-55-2.6-8.2-6.7-15.7-13.5-21.2-19-15.3-46.1-9.7-57.5 12.2-11 21.1-11.1 43.4-3.4 65.5 3 8.7 7.1 16.7 6.1 26.3-.3 3.3 1.9 4.7 5.1 4.8 3.8 0 7.7 0 11.5.1 6.2.1 7.2 1 7.2 7.4.2 11.6.1 23.3.1 34.9zm-208-.2c0 12.2.1 24.3 0 36.5 0 4.4 1.8 6.5 6.3 6.3 3.7-.1 7.3 0 11 0 9.1 0 9.6-.5 9.6-9.6 0-25.5.1-51-.1-76.5a14.84 14.84 0 014.8-11.4c4.2-4.4 8.4-9.4 10.6-14.9 8.9-21.8 8.5-43.9-.1-65.7a37 37 0 00-21.6-21.7c-19.5-7.6-41 1.8-49.1 21.5-8.6 20.7-9.2 42-1.1 62.9 3.2 8.3 6.7 16.2 5.8 25.3-.3 3.2 1.7 4.9 4.9 5 3 0 6 .1 9 .1 9.7 0 9.9.3 10 9.7v32.5z" transform="translate(-879.29 -436.41)"/>
  <path fill="#fff" d="M1040.72 485.28v38.5c0 3.8.8 6.8 4.5 8.7 10.3 5.2 16.4 14.3 19.5 24.9 5.9 20 6.5 40.2-1 59.9-12 31.6-46 31.2-61.4 17.3a42.37 42.37 0 01-10.6-14.3c-9.9-23.7-9.9-47.7 1.2-71.2a34.83 34.83 0 0116.1-16.5c3.4-1.7 4.7-4.3 4.7-8 0-18-.1-36 0-54 0-4.7-2.1-6.7-6.7-6.5-4 .1-8 0-12 0-3.5 0-5.3-1.7-5.3-5.2v-14.5c0-3.5 2-5.1 5.4-5.1h40c4.6 0 5.5 2.8 5.5 6.6 0 13 0 26.2.1 39.4zm2 100c-1.4-8.5-2.4-17.8-4.7-26.8-1.8-6.8-6.7-9.1-13.5-8.3-6.3.8-8.6 5.5-9.8 10.6a113.25 113.25 0 000 49.5c1.7 7.6 5.7 10.6 11.9 10.7 6.4.1 10.4-2.7 12.1-10.3 2-8 2.7-16.3 4-25.4zm205.9-99.6c0 12.7.1 25.3-.1 38-.1 4.4 1.2 7.4 5.3 9.8 11.1 6.4 16.8 16.9 19.9 28.8 4.6 18.2 4.4 36.3-2.1 54.1-5.8 15.8-20.3 26.6-35.9 26.6-17.3 0-29.3-8.8-35.9-24.1-9.2-21.6-9-43.9-.4-65.7a38.75 38.75 0 0117.1-19.7c3.8-2.2 5.3-5 5.2-9.3-.1-18 0-36-.1-54 0-6-1.1-6.9-7-7.1-3.8-.1-7.7-.1-11.5-.1-3.4 0-5.3-1.6-5.3-5.1v-13.5c0-3.2 1.5-5.1 4.8-5.1h41c4.4 0 5 3 5 6.5v39.9zm2.1 101.5c-1.2-9.5-1.9-18.3-3.7-26.9-1.4-7.1-5.7-10.2-11.7-10.3-6.8-.1-10.9 2.3-12.3 9.9a162.09 162.09 0 00-2.8 31.1c.1 7.8 2.3 15.7 4.2 23.4 1.2 4.7 5.1 6.6 10 6.6 6.4 0 10.5-2.3 12.1-8.9 2.1-8.3 3-16.9 4.2-24.9zm-128 9.2v-35c0-6.4-1-7.3-7.2-7.4-3.8-.1-7.7-.1-11.5-.1-3.2 0-5.4-1.5-5.1-4.8 1-9.5-3.1-17.6-6.1-26.3-7.7-22.1-7.6-44.3 3.4-65.5 11.4-22 38.4-27.5 57.5-12.2 6.8 5.5 10.9 13 13.5 21.2 5.8 18.3 6.3 36.9-.1 55-2.5 7-7.1 13.5-11.9 19.2-3.7 4.4-5.7 8.4-5.7 14.1.2 25 .1 50 .1 75 0 8.7-.6 9.3-9.4 9.3-3.5 0-7 .1-10.5 0-5.9-.1-6.9-1-6.9-7.1-.1-11.7 0-23.6-.1-35.4zM1114 494c.2 0 .5.1.7.1a40.06 40.06 0 000 6c1.2 7.2 2.1 14.5 3.9 21.5 1.3 5 5.3 8 10.8 8.1 5.8.1 9.3-3.2 11.4-8.2a13.55 13.55 0 001.4-4.3c.8-10.1 2-20.2 1.8-30.3a75.22 75.22 0 00-3.6-21c-2.3-7.3-11.2-10.3-17.1-5.9a17.37 17.37 0 00-6 9.8c-1.7 7.9-2.3 16.1-3.3 24.2zM914.7 596.2v-32.5c0-9.4-.3-9.7-10-9.7-3 0-6 0-9-.1-3.2 0-5.2-1.8-4.9-5 .9-9.2-2.6-17-5.8-25.3-8.1-20.9-7.5-42.1 1.1-62.9 8.1-19.7 29.6-29.1 49.1-21.5a37 37 0 0121.6 21.7c8.6 21.8 9 44 .1 65.7-2.3 5.5-6.4 10.5-10.6 14.9a15.2 15.2 0 00-4.8 11.4q.15 38.25.1 76.5c0 9.1-.5 9.6-9.6 9.6-3.7 0-7.3-.1-11 0-4.5.1-6.3-2-6.3-6.3.1-12.2.1-24.3 0-36.5zm-8.8-102.6c1.1 8.1 1.7 16.8 3.4 25.2 1.6 7.9 6.2 11.2 12.6 11.1 5.8-.2 10.2-4.1 11.8-11.6 1.3-6 2.7-12.2 2.5-18.2A216.83 216.83 0 00933 468c-1.6-8.3-8.8-11.8-15.9-9.2-5.4 1.9-7.5 6.7-8.4 11.6-1.3 7.4-1.8 15.1-2.8 23.2z" transform="translate(-879.29 -436.41)"/>
  <path fill="#fff" class="cls-1" d="M1042.72 585.28c-1.4 9.1-2.1 17.5-3.9 25.5-1.8 7.6-5.8 10.4-12.1 10.3s-10.2-3.2-11.9-10.7a111.76 111.76 0 010-49.5c1.2-5.1 3.6-9.8 9.8-10.6 6.8-.9 11.7 1.4 13.5 8.3 2.2 8.8 3.2 18.1 4.6 26.7zm208 1.9c-1.3 8-2.1 16.6-4.1 25-1.6 6.7-5.7 9-12.1 8.9-4.9 0-8.8-2-10-6.6-1.9-7.7-4.1-15.5-4.2-23.4a170.5 170.5 0 012.8-31.1c1.4-7.7 5.5-10 12.3-9.9 6 .1 10.2 3.2 11.7 10.3 1.7 8.6 2.4 17.4 3.6 26.8zM1114 494c1-8.1 1.6-16.3 3.3-24.2.8-3.6 3.1-7.7 6-9.8 5.9-4.5 14.9-1.4 17.1 5.9a75.84 75.84 0 013.6 21c.2 10.1-1.1 20.2-1.8 30.3a14.42 14.42 0 01-1.4 4.3c-2.1 5-5.6 8.3-11.4 8.2-5.5-.1-9.5-3.1-10.8-8.1-1.9-7-2.8-14.3-3.9-21.5a40.05 40.05 0 010-6c-.2 0-.4-.1-.7-.1zm-208.1-.4c1-8.2 1.5-15.8 2.9-23.3.9-4.9 3-9.7 8.4-11.6 7.1-2.5 14.3.9 15.9 9.2a214.18 214.18 0 013.2 32.1c.2 6-1.2 12.2-2.5 18.2-1.6 7.5-6 11.4-11.8 11.6-6.5.2-11-3.2-12.6-11.1-1.8-8.3-2.5-16.9-3.5-25.1z" transform="translate(-879.29 -436.41)"/>
</svg>