<svg id="Layer_1" data-name="Layer 1" xmlns="http://www.w3.org/2000/svg" viewBox="0 0 432.3 94.05" width="184px" height="auto">
  <defs>
    <style>
      .cls-1{fill:none}
    </style>
  </defs>
  <path class="cls-1" d="M754.27 381.16h-23.7V371h-8.2v10.2h-15c-1.1-3.1-2.3-6.2-3.4-9.3-.3-.7-.6-1-1.4-.9-2.2 0-4.4.1-6.6 0-.9 0-1.2.3-1.5 1.1-1.1 3.1-2.2 6.1-3.3 9.2h-14.1v-10.1h-8v10.2h-9.4a1.65 1.65 0 01-1.5-.9c-1.7-2.9-3.4-5.7-5.2-8.6a1.52 1.52 0 00-1-.8c-2.7-.1-5.5 0-8.4 0v10.3c-1.4 0-2.6-.1-3.9 0-.9.1-1.3-.2-1.8-1-4.3-7.9-12.1-11-20.5-9.9a18.47 18.47 0 00-14.3 10.1c-.2.3-.5.7-.7.7-1.7.1-3.3 0-5.1 0v-10.2H589v10.2h-15.2c0-.5-.1-.9-.1-1.3 0-1.6 0-1.6 1.5-1.6h8.3c.4 0 1-.3 1-.5.1-2.3 0-4.5 0-6.8h-29.9v7.3h10.6v2.9h-16.3c-.3 0-.7-.5-.9-.9-1.1-2.8-2.1-5.7-3.1-8.5a1.13 1.13 0 00-1.3-.9c-2.2 0-4.5.1-6.7 0a1.25 1.25 0 00-1.4 1c-1 2.8-2.1 5.6-3 8.4a1.13 1.13 0 01-1.3.9h-12.1c-.3 0-.6-.1-1-.1v-10.1h-8v10.2h-9.9c-.3 0-.7-.4-.9-.7-1.8-2.9-3.6-5.9-5.4-8.8a2 2 0 00-.8-.8c-2.8-.1-5.6 0-8.5 0v10.2h-5.9a37.13 37.13 0 00-1.5-4c-2.4-4.3-6.4-6.1-11.1-6.3-5.2-.1-10.3 0-15.5 0-.3 0-.5.1-1 .1v10.1H426v-2.9h17.9V371h-26.4v10.1h-14.8v-2.9h10.7v-7.3h-29.7v7.3h10.6v2.8h-14.8v-10.1h-7.9v10.2h-10a1.12 1.12 0 01-.8-.7c-1.5-2.4-3-4.7-4.3-7.2-1-1.9-2.2-2.7-4.4-2.5-2 .2-4 0-6.1 0v10.2h-6.4v-10.1h-8.3v10.3h-8.7v20.4h8.8v10.3h8.3v-10.2h6.4v10.2h7.9v-10.3h10.3c.3 0 .7.4.9.8 1.8 2.9 3.5 5.8 5.3 8.7a2.13 2.13 0 001 .9c2.6.1 5.3 0 8.1 0v-10.3h14.9v10.2h8.2v-10.2h14.9v10.2h26.3v-7.3h-15.5c-2.7 0-2.7 0-2.4-2.7 0-.1.1-.1.1-.2h23.6v10.2h8.3v-10.3h7a1.52 1.52 0 011 .8c1.5 2.9 2.9 5.8 4.3 8.7a1.35 1.35 0 001.5.9h7.8c.3 0 .6-.1 1-.1-1.9-3.4-3.7-6.8-5.6-10.2h9.7v10.2h7.9v-10.3h9.7a1.7 1.7 0 011.6.9c1.7 2.8 3.4 5.7 5.1 8.5a1.76 1.76 0 001.7 1c2.1-.1 4.2 0 6.2 0 .4 0 .8-.1 1.2-.1v-10.2h6.5c-1.2 3.4-2.4 6.8-3.7 10.3h8.4c.2 0 .6-.5.7-.8.6-1.7 1.1-3.3 1.6-5 .2-.6.4-.9 1.1-.9h14.4c.8 0 1 .3 1.2 1 .5 1.6 1 3.3 1.6 4.9.1.3.5.8.8.8 2.8.1 5.6 0 8.6 0-1.3-3.5-2.5-6.9-3.7-10.3h9.6v10.2h8.4v-10.2h15.2v9.2c0 .8.2 1.2 1.1 1.1 2.1-.1 4.2-.1 6.2 0 .9 0 1.1-.3 1.1-1.1v-9.3c1.5 0 2.7.1 4 0a1.83 1.83 0 012 1.2c4.3 7.8 11.9 10.9 20.5 9.7 6.4-.9 11.1-4.4 14.2-10.1.2-.3.5-.8.8-.8 1.5-.1 3.1 0 4.7 0v9.3c0 .4.4 1 .6 1 2.4.1 4.8 0 7.4 0v-10.4h9.5a2 2 0 011.9 1.1c1.7 2.9 3.4 5.7 5.2 8.5.2.3.6.8.9.8 2.7.1 5.3 0 8.1 0v-10.3h6.6c-1.2 3.4-2.5 6.8-3.7 10.3h8.4c.3 0 .7-.5.8-.8.6-1.6 1.1-3.2 1.6-4.9.2-.8.6-1 1.4-1h11c1.4 0 3-.4 4 .3s1 2.3 1.4 3.6c1 2.8.9 2.9 3.9 2.9h6.1c-1.3-3.6-2.5-6.9-3.7-10.3h7.7v10.2h23.9v-7.7h-15.6v-2.6h23.6m-262.9-82.8c-.1 0-.2.1-.3.1-6.7.9-11.4 4.4-14.5 10.3-.2.4-.9.6-1.3.7-3 .1-5.9 0-8.9 0a1.33 1.33 0 01-1.5-1l-3-8.4a1.25 1.25 0 00-1.4-1H454a1.33 1.33 0 00-1.5 1c-1 2.8-2 5.6-3.1 8.4-.1.4-.5.9-.7.9-2.2.1-4.4 0-6.7 0 1.1-3.5 2.2-6.9 3.3-10.4H437c-.3 0-.8.5-.9.8-.8 2.7-1.6 5.5-2.4 8.3-.3 1-.7 1.3-1.7 1.3-3-.1-5.9-.1-8.9 0a1.4 1.4 0 01-1.6-1.3c-.7-2.8-1.6-5.5-2.4-8.3-.1-.3-.5-.9-.8-.9-2.8-.1-5.6 0-8.6 0 1.1 3.5 2.2 6.9 3.3 10.3h-7.7v-10.3h-7.1c-.9 0-1.3.3-1.2 1.2.1 2.6 0 5.3 0 7.9 0 1.1-.3 1.4-1.4 1.3a20.45 20.45 0 00-3.5 0c-.8 0-1.1-.2-1.3-1a10.52 10.52 0 00-2.9-5.5c-2.8-2.8-6.2-3.8-10-3.9-4.8-.1-9.7 0-14.5 0a5.74 5.74 0 00-1.2.1v10.3h-2.9c-.7 0-.9-.3-1-.8-1.1-5.6-5.7-8.9-11.3-9.3-5-.4-10.1-.2-15.1-.2-.8 0-.9.4-.9 1.1v8.3c0 .8-.2 1.1-1.1 1.1-1.8-.1-3.5 0-5.3 0h-2.5v19.6c0 .8.4.8 1 .8h6.6c1 0 1.3.2 1.3 1.3-.1 2.4 0 4.9 0 7.3a9.15 9.15 0 00.1 1.7h8.3v-10.2h22.9v10.2h8.3v-10.3h6.6a1.49 1.49 0 011.5.9c1.4 2.9 2.9 5.7 4.2 8.6a1.35 1.35 0 001.5.9h8.9c-2-3.6-3.8-6.9-5.6-10.3h9.5v10.2h8.3v-10.3h13.7c.3 0 .7.5.9.9 1 2.8 1.9 5.7 2.8 8.5.2.7.5 1 1.2.9 2.3-.1 4.6 0 6.8 0 .7 0 1-.3 1.2-1 .9-2.9 1.8-5.7 2.8-8.5.1-.3.4-.8.6-.8 1.9-.1 3.8 0 5.9 0-1.3 3.5-2.5 6.9-3.7 10.3h8.2a1.2 1.2 0 00.9-.8c.6-1.6 1.1-3.3 1.6-5 .2-.6.4-.9 1.2-.9h14.5a1 1 0 011.1.8c.5 1.7 1 3.3 1.6 5a1.76 1.76 0 00.8.9c2.8.1 5.6 0 8.6 0-1.3-3.5-2.4-6.9-3.7-10.3a13.28 13.28 0 002 0 2 2 0 012.1 1.2 19.91 19.91 0 003.6 5c5.5 5 12 5.9 19 4a16.12 16.12 0 007.9-5.3c-2.2-1.3-4.3-2.5-6.4-3.7a1.47 1.47 0 00-1.1.2c-3.1 2.6-6.6 2.8-10.3 1.4a7.58 7.58 0 01-3.5-2.7h35.9v10.2h8.3v-10.3h18.7v-20.4h-10.3c2.2-3.5 4.3-6.8 6.5-10.3h-8.5a1.85 1.85 0 00-1.2.8c-2 2.9-3.9 5.8-5.9 8.7a2.24 2.24 0 01-1.5.8c-1.3.1-2.6 0-4 .1a1.72 1.72 0 01-1.6-.8l-5.7-8.7a1.65 1.65 0 00-1.5-.9h-8.7c2.3 3.6 4.4 6.9 6.5 10.3h-27a9.34 9.34 0 015.2-3.4 9.92 9.92 0 018.8 2.1l5.8-5.8a41.72 41.72 0 00-4.6-2.6 49.12 49.12 0 00-5.8-1.5" transform="translate(-322.07 -318.56)"/>
  <path d="M754.27 401.46h-23.6v2.6h15.6v7.7h-23.9v-10.2h-7.7c1.2 3.4 2.4 6.7 3.7 10.3h-6.1c-3 0-3 0-3.9-2.9-.4-1.2-.5-3-1.4-3.6s-2.6-.3-4-.3H692c-.8 0-1.1.2-1.4 1-.5 1.6-1 3.3-1.6 4.9-.1.3-.5.8-.8.8-2.7.1-5.4 0-8.4 0 1.3-3.5 2.5-6.9 3.7-10.3h-6.6v10.3h-8.1c-.3 0-.7-.5-.9-.8-1.7-2.8-3.5-5.6-5.2-8.5a2 2 0 00-1.9-1.1c-3.1.1-6.2 0-9.5 0v10.4h-7.4c-.2 0-.6-.7-.6-1v-9.3h-4.7c-.3 0-.6.5-.8.8-3.1 5.7-7.8 9.2-14.2 10.1-8.6 1.2-16.1-1.9-20.5-9.7a1.83 1.83 0 00-2-1.2c-1.3.1-2.5 0-4 0v9.3c0 .8-.2 1.1-1.1 1.1-2.1-.1-4.2-.1-6.2 0-.9 0-1.1-.4-1.1-1.1v-9.2h-15.2v10.2h-8.4v-10.2h-9.6c1.2 3.4 2.4 6.8 3.7 10.3h-8.6c-.3 0-.7-.5-.8-.8-.6-1.6-1.1-3.2-1.6-4.9-.2-.7-.5-1-1.2-1h-14.4a1 1 0 00-1.1.9c-.5 1.7-1 3.3-1.6 5-.1.3-.5.8-.7.8-2.7.1-5.5 0-8.4 0 1.3-3.5 2.5-6.9 3.7-10.3H518v10.2c-.5 0-.9.1-1.2.1h-6.2a1.76 1.76 0 01-1.7-1c-1.7-2.9-3.4-5.7-5.1-8.5a1.54 1.54 0 00-1.6-.9c-3.2.1-6.4 0-9.7 0v10.3h-7.9v-10.2h-9.7c1.9 3.4 3.7 6.7 5.6 10.2a3.75 3.75 0 01-1 .1h-7.8a1.65 1.65 0 01-1.5-.9c-1.4-2.9-2.8-5.8-4.3-8.7-.2-.3-.7-.8-1-.8-2.3-.1-4.6 0-7 0v10.3h-8.3v-10.2H426c0 .1-.1.1-.1.2-.3 2.7-.3 2.7 2.4 2.7h15.5v7.3h-26.3v-10.2h-14.9v10.2h-8.2v-10.2h-14.9v10.3h-8.1c-.3 0-.8-.5-1-.9-1.8-2.9-3.5-5.8-5.3-8.7-.2-.3-.6-.8-.9-.8-3.4-.1-6.8 0-10.3 0v10.3H346v-10.2h-6.4v10.2h-8.3v-10.3h-8.8v-20.4h8.7v-10.3h8.3v10.1h6.4v-10.2c2.1 0 4.1.2 6.1 0a3.88 3.88 0 014.4 2.5c1.3 2.5 2.8 4.8 4.3 7.2.2.3.6.7.8.7h10v-10.2h7.9V381h14.8v-2.8h-10.6v-7.3h29.7v7.3h-10.7v2.9h14.8V371h26.4v7.2h-17.9v2.9h23.6V371c.4 0 .7-.1 1-.1 5.2 0 10.3-.1 15.5 0 4.7.1 8.7 1.9 11.1 6.3a23.66 23.66 0 011.5 4h5.9V371h8.5c.3 0 .6.4.8.8 1.8 2.9 3.6 5.9 5.4 8.8.2.3.6.7.9.7 3.2.1 6.5 0 9.9 0v-10.2h8v10.1c.4 0 .7.1 1 .1h12.1a1.19 1.19 0 001.3-.9c1-2.8 2.1-5.6 3-8.4.3-.8.6-1.1 1.4-1 2.2.1 4.5 0 6.7 0a1.13 1.13 0 011.3.9c1 2.9 2 5.7 3.1 8.5.1.4.6.9.9.9 5.4.1 10.8 0 16.3 0v-2.9h-10.6v-7.3h29.9v6.8c0 .2-.7.5-1 .5h-8.3c-1.5 0-1.5 0-1.5 1.6a5.7 5.7 0 00.1 1.3h15.2v-10.2h8.3v10.2h5.1c.2 0 .5-.4.7-.7a18.47 18.47 0 0114.3-10.1c8.4-1.2 16.2 2 20.5 9.9a1.57 1.57 0 001.8 1c1.2-.1 2.5 0 3.9 0v-10.3h8.4c.3 0 .8.5 1 .8 1.8 2.8 3.5 5.7 5.2 8.6a1.65 1.65 0 001.5.9h9.4v-10.2h8v10.1h14.1c1.1-3 2.3-6.1 3.3-9.2.3-.8.6-1.1 1.5-1.1q3.3.15 6.6 0a1.24 1.24 0 011.4.9c1.1 3.1 2.2 6.2 3.4 9.3h15V371h8.2v10.2h23.7c.07 6.8.07 13.46.07 20.26zm-125.7.1h-16c3.5 4.9 12.1 4.9 16 0zm.1-20.5a10.93 10.93 0 00-10.2-3.5 9.59 9.59 0 00-6 3.5zM458 377.66v3.4h11.9a4 4 0 00-3.2-2.7c-2.83-.36-5.7-.5-8.7-.7zm37.6-59a33.21 33.21 0 015.8 1.5 30 30 0 014.6 2.6c-2 2-3.9 3.8-5.8 5.8a9.78 9.78 0 00-8.8-2.1 9.34 9.34 0 00-5.2 3.4h27c-2.2-3.4-4.3-6.7-6.5-10.3h8.7a1.42 1.42 0 011.5.9l5.7 8.7a1.48 1.48 0 001.6.8c1.3-.1 2.6.1 4-.1a2.24 2.24 0 001.5-.8c2-2.9 3.9-5.8 5.9-8.7a1.85 1.85 0 011.2-.8c2.7-.1 5.4 0 8.5 0-2.2 3.5-4.3 6.8-6.5 10.3h10.3v20.4h-18.7v10.3h-8.3v-10.2h-35.9a7.11 7.11 0 003.5 2.7c3.6 1.4 7.1 1.2 10.3-1.4.3-.2.8-.4 1.1-.2 2.1 1.2 4.2 2.4 6.4 3.7a15.28 15.28 0 01-7.9 5.3c-7 1.9-13.5 1.1-19-4a19.91 19.91 0 01-3.6-5c-.6-.9-1.1-1.3-2.1-1.2a13.28 13.28 0 01-2 0c1.2 3.5 2.4 6.8 3.7 10.3H468c-.3 0-.6-.5-.8-.9-.6-1.7-1.1-3.3-1.6-5a1 1 0 00-1.1-.8H450a1.11 1.11 0 00-1.2.9c-.5 1.7-1 3.4-1.6 5-.1.3-.6.8-.9.8-2.7.1-5.4 0-8.2 0 1.3-3.5 2.5-6.8 3.7-10.3h-5.9c-.2 0-.5.5-.6.8-1 2.8-1.9 5.7-2.8 8.5-.2.7-.5 1-1.2 1h-6.8a1.11 1.11 0 01-1.2-.9c-.9-2.8-1.8-5.7-2.8-8.5-.1-.4-.6-.9-.9-.9-4.5-.1-9 0-13.7 0v10.3h-8.3v-10.2h-9.5c1.9 3.4 3.7 6.7 5.6 10.3h-8.9a1.49 1.49 0 01-1.5-.9c-1.4-2.9-2.8-5.7-4.2-8.6a1.35 1.35 0 00-1.5-.9H371v10.3h-8.3v-10.2h-22.9v10.2h-8.3c0-.6-.1-1.2-.1-1.7 0-2.4-.1-4.9 0-7.3 0-1-.3-1.3-1.3-1.3-2.2.1-4.4 0-6.6 0-.6 0-1-.1-1-.8v-19.6h7.8c.9 0 1.1-.3 1.1-1.1v-8.3c0-.6.1-1.1.9-1.1 5 .1 10.1-.1 15.1.2 5.6.4 10.2 3.7 11.3 9.3.1.6.4.9 1 .8a28 28 0 012.9 0v-10.3c.5 0 .8-.1 1.2-.1 4.8 0 9.7-.1 14.5 0 3.8.1 7.3 1.1 10 3.9a10.91 10.91 0 012.9 5.5c.2.8.5 1 1.3 1a20.45 20.45 0 013.5 0c1 .1 1.4-.2 1.4-1.3-.1-2.6 0-5.3 0-7.9 0-1 .3-1.2 1.2-1.2 2.3.1 4.6 0 7.1 0v10.3h7.7c-1.1-3.5-2.2-6.8-3.3-10.3h8.6c.3 0 .7.5.8.9.8 2.7 1.7 5.5 2.4 8.3a1.4 1.4 0 001.6 1.3c3-.1 5.9-.1 8.9 0 1 0 1.5-.3 1.7-1.3.7-2.8 1.5-5.5 2.4-8.3.1-.3.6-.8.9-.8 2.7-.1 5.3 0 8.3 0-1.1 3.5-2.2 6.8-3.3 10.4h6.7c.3 0 .6-.6.7-.9 1.1-2.8 2.1-5.6 3.1-8.4a1.33 1.33 0 011.5-1c2.2.1 4.4 0 6.6 0a1.31 1.31 0 011.4 1l3 8.4a1.33 1.33 0 001.5 1h8.9a1.56 1.56 0 001.3-.7c3.1-5.9 7.8-9.5 14.5-10.3a26.07 26.07 0 014-.2zm-112.9 11a3.53 3.53 0 00-3.2-2.7c-2.8-.4-5.7-.4-8.6-.6v3.3zm-32.7.1c-1.8-3.5-5.2-3.5-10.3-3v3z" transform="translate(-322.07 -318.56)" fill="#fff"/>
  <path class="cls-1" d="M628.57 401.56c-3.9 4.9-12.5 4.9-16 0zm.1-20.5h-16.2a9.59 9.59 0 016-3.5 10.93 10.93 0 0110.2 3.5zM458 377.66c3 .2 5.9.3 8.7.7a4 4 0 013.2 2.7H458zm-75.3-48h-11.9v-3.3c2.9.2 5.8.2 8.6.6a3.67 3.67 0 013.3 2.7zm-32.7.1h-10.3v-3c5.07-.5 8.47-.5 10.3 3z" transform="translate(-322.07 -318.56)"/>
</svg>