<svg data-name="Layer 2" xmlns="http://www.w3.org/2000/svg" viewBox="0 0 1233.1 99" width="244px" height="auto">
  <path fill="#fff" d="M64 46.4l-1.1-.8a20.82 20.82 0 006.2-8.5c3.9-10.4.1-22.6-9.2-29.4a29.12 29.12 0 00-17.8-5.5H.1C.1 33.8.1 65.3 0 97h.6c13.1 0 26.1.1 39.2-.1A71.37 71.37 0 0052 95.4c6.9-1.4 12.8-4.8 16.8-10.8 3.8-5.6 5.2-12 5.1-18.7A23.62 23.62 0 0064 46.4zM22.7 23.2h16.7a12.41 12.41 0 012.7.3c4.3.9 6.3 3.6 5.8 8.7-.3 3.7-2.8 5.9-6.8 6.1s-8 .1-12 .1h-6.4zm28.5 46.5c-.8 3.7-3.2 5.7-7.2 6.1a19.27 19.27 0 01-2.4.1H22.7c0-6.2 0-12.3.1-18.4a3.75 3.75 0 011-.1h17.9a16.48 16.48 0 013.2.4c4 .9 6.3 3.3 6.6 7.4a17.06 17.06 0 01-.3 4.5zM148.6 21.3c5.9-.6 10.7 1.5 13.7 7a23.74 23.74 0 012 5c.5 1.8.9 3.7 1.3 5.6q11.25-1.8 22.2-3.6c.1-.3.1-.3.1-.4l-.3-2.4c-1.1-7.7-3.8-14.7-9.2-20.4C168.3 1.4 155.8-1.8 141.8 1c-15.4 3.1-25.4 12.8-30.8 27.3-2.8 7.6-3.3 15.5-3 23.5a73.1 73.1 0 002.5 17.4c4.9 17.7 18.7 27.9 34.5 29.4 1.3.1 2.6.3 3.9.4h2.4a3.59 3.59 0 011.1-.2c8.3-.3 15.9-2.8 22.3-8.2 8.9-7.5 12.6-17.3 13-28.6.2-5.3.1-10.6.1-15.9 0-.3-.1-.7-.1-1h-38.6v19.6h16.7c-.4 3.4-1.4 6.4-3.8 8.8-5 5.1-14.8 5.8-20.9 1.6-4.3-2.9-6.8-7.2-8.2-12.1a54.33 54.33 0 01-1.8-15.5c.1-4.6.5-9.2 2.3-13.5 2.8-6.8 7.3-11.9 15.2-12.7zM452.2 11.1C442 1.9 430-1.6 416.5 1.1c-15.1 3.1-25.2 12.2-30.6 26.6a64.36 64.36 0 00-3.4 24.6 62.72 62.72 0 003.9 20.6c5.9 15.2 17.1 23.5 33.1 25.7 1.3.1 2.7.3 4.1.4h1.9a2.35 2.35 0 01.8-.2c1.7-.2 3.5-.2 5.2-.5 14.1-2.5 24.6-9.9 30.2-23.3s6.2-27.1 3.2-41.1c-1.9-8.8-5.8-16.7-12.7-22.8zm-10.6 52.8c-1.5 5.2-4.2 9.5-9.1 12.1-7.3 3.9-18.6 2.7-23.8-8.8-2.1-4.5-2.7-9.4-3-14.4-.1-1.2 0-2.4 0-3.6 0-5.7.4-11.4 2.9-16.7 2.3-5 5.7-9 11.2-10.6 7.4-2.2 14.5.6 19 7.4a27 27 0 014.2 12.3 59.81 59.81 0 01-1.4 22.3zM1131.4 58.3a35.4 35.4 0 01-2.9 11.5c-1.7 3.6-4.2 6.5-8.3 7.5a15.74 15.74 0 01-13.3-2.2c-4.3-3-6.7-7.2-8.1-12.1a51.28 51.28 0 01-1.8-15.6c.1-4.6.5-9.1 2.3-13.4 2.8-6.8 7.3-11.9 15.2-12.7 5.5-.6 10.2 1.1 13.2 6.1a25.21 25.21 0 013.2 8.4c.2 1.4.5 2.8.7 4.3 7.5-1.2 14.8-2.3 22.3-3.5-.3-2.4-.6-4.6-1-6.8-1.6-7.6-4.9-14.3-10.7-19.6C1131.6.5 1119-2 1105.5 1.5c-14.9 3.9-24.4 13.8-29.2 28.3-2.4 7.2-2.8 14.6-2.5 22.1a73.5 73.5 0 002.2 16.2c4.7 18.3 18.6 29 34.9 30.5 1.3.1 2.5.3 3.8.4h2.4a3.59 3.59 0 011.1-.2c7.9-.3 15.2-2.4 21.5-7.4 9.8-7.8 13.8-18.5 15.2-30.6-7.8-1.6-15.5-3.3-23.2-5-.1 1-.2 1.8-.3 2.5zM921.7 2.4h-21.2c-.8-.1-.9.4-1 1-3.4 17.5-6.7 35.1-10.1 52.6 0 .2-.1.3-.3.6-.2-.5-.3-.9-.4-1.2-5.9-17.3-11.9-34.7-17.8-52a1.32 1.32 0 00-1.5-1.1c-3.2.1-6.5.1-9.7 0-1.3 0-1.7.4-2.1 1.6q-7.8 23.1-15.8 46.2c-.7 2.1-1.5 4.2-2.3 6.6a2.94 2.94 0 01-.3-.9c-3.3-17.5-6.7-34.9-10-52.4-.2-1-.6-1.2-1.5-1.2h-20.4c-.3 0-.7.1-1.2.1.1.4.1.7.2 1 2.9 14.7 5.8 29.5 8.7 44.3 3.2 16.1 6.4 32.1 9.5 48.2a1.19 1.19 0 001.4 1.1h19.9c.8 0 1.1-.2 1.4-1 4.9-14.6 9.9-29.2 14.8-43.8.7-2.2 1.5-4.3 2.3-6.7a2 2 0 01.1 1.5q8.25 24.45 16.5 49a1.48 1.48 0 001.7 1.2h20.9q9.45-47.4 18.7-94.6a2 2 0 01-.5-.1zM288.5 45.7a44.2 44.2 0 003.9-4.7c5.2-8.6 4.8-17.4-.2-25.8-5.4-9.1-14.1-13-24.5-13.1-13.6-.1-27.3 0-40.9 0h-1.2v94.7h1.5c12 0 24.1.1 36.2 0a81 81 0 0012-1 28.59 28.59 0 0014.2-6c10-8.2 11.7-23.3 8.3-32.6a23.82 23.82 0 00-9.3-11.5zm-40.55-22.5h16.6a13.58 13.58 0 012.9.3 7.64 7.64 0 014.9 11.6 6.92 6.92 0 01-5.9 3.1c-3.3.1-6.6.1-9.9.1h-8.5c-.05-5.1-.05-10-.1-15.1zm28.6 46.5c-.7 3.7-3.2 5.8-7.2 6.2-1.4.1-2.7.1-4.1.1h-17.1V57.5a2.85 2.85 0 011.3 0h17.4a19.7 19.7 0 013.4.4 7.77 7.77 0 016.6 7.8 26.93 26.93 0 01-.35 4zM760 59.8a27.53 27.53 0 0014-14.3 33.15 33.15 0 002-17.6 27.41 27.41 0 00-7.7-16.1c-6.7-6.8-15.2-9.6-24.6-9.7-13.1-.1-26.2 0-39.3 0h-1.3v94.6h22.5V63.5c2.9 0 5.6.1 8.3 0a1.88 1.88 0 011.9 1.1c5.6 10.4 11.4 20.8 17.1 31.2a1.63 1.63 0 001.7 1.1h23.6c-6.7-12.1-13.3-24.1-20-36.1a8.11 8.11 0 001.8-1zm-6.6-26.2c-.1 5.5-2.5 8.4-7.7 9.5a11.24 11.24 0 01-3.2.4h-17V22.8a4.33 4.33 0 00.5-.1c5.7 0 11.4 0 17.1.1a14.27 14.27 0 013.5.6c4.7 1.3 7 4.7 6.8 10.2zM364.3 60c7.5-3.7 12.7-9.4 15.1-17.4a33.47 33.47 0 00.2-18.3 26.75 26.75 0 00-6.9-12.4c-6.8-6.8-15.2-9.6-24.7-9.7-13-.1-26.1 0-39.2 0h-1.3v94.6H330V63.6h8.1a1.57 1.57 0 011.8 1c5.7 10.4 11.5 20.8 17.2 31.3a1.62 1.62 0 001.7 1h22.3c.4 0 .8-.1 1.3-.1-6.7-12.1-13.3-24-19.9-36a15.86 15.86 0 001.8-.8zm-6.6-24c-.5 4-3.3 6.5-7.7 7.2a21.19 21.19 0 01-4.4.4h-15.5c0-7 0-13.9-.1-20.8a2.49 2.49 0 01.8-.1c5.5 0 11-.1 16.5.1a18.11 18.11 0 015.65 1.2 6.91 6.91 0 014.7 5.8 21.53 21.53 0 01.05 6.2zM594.3 2.2v36H568v-36h-22.5v94.6H568V58.1h26.4v38.7h22.55q0-47.25-.1-94.6zM1210.6 2.3v36h-26.3c0-12.1 0-24 .1-36h-22.45v94.6h22.5V58.3h26.3v38.6h22.4V2.3zM630.3 96.8h62.5V75.9h-40V58.7h36.4V38.4h-36.4V23.2h40V2.3h-62.5zM971.5 3.7c-.4-1-.8-1.3-1.8-1.3-5.4.1-10.7 0-16 0a1.54 1.54 0 00-1.7 1.2q-14.85 40.65-29.9 81.5c-1.5 3.9-2.9 7.9-4.4 11.9a1.09 1.09 0 00.5.1h21.5c.7 0 .9-.3 1.1-.9l4.5-12.9a1.33 1.33 0 011.5-1h29.15c.8-.1 1.1.2 1.4 1 1.4 4.2 3 8.4 4.4 12.6a1.33 1.33 0 001.5 1h21.1c.4 0 .7-.1 1.2-.1-.5-1.3-1-2.7-1.3-3.7zm-19.1 59c2.9-8.3 5.9-16.6 8.8-24.9h.3c2.9 8.3 5.7 16.6 8.7 24.9zM465.5 23.2h26.6v73.6h22.6V23.1h26.6V2.2h-75.9c0 7 0 14 .1 21zM1074.8 2.3h-75.85v20.9h26.6v73.6h22.7V23.1h26.6zM79.6 96.8H102V2.2H79.6z"/>
</svg>