<svg id="Layer_1" data-name="Layer 1" xmlns="http://www.w3.org/2000/svg" viewBox="0 0 258.3 59.51" width="117px" height="auto">
  <defs>
    <style>
      .cls-1{fill:none}
    </style>
  </defs>
  <path class="cls-1" d="M910.31 494.84v59.1c.5 0 .9.1 1.3.1h20.1c6.3-.1 10-3 11.6-9.1a30.88 30.88 0 00.5-12.1c-.7-4.3-2.5-7.9-6.9-9.7-.1 0-.1-.1-.2-.3.1 0 .2-.1.3-.1a9 9 0 005.2-7.1 31.44 31.44 0 00.3-7.5c-.7-8.5-6-13.2-14.5-13.2h-16.2a6.62 6.62 0 00-1.5-.1zm80.8 0v59h13v-23c3.5-.7 5.2.4 5.7 3.7.1.8.1 1.6.2 2.4.1 3.4 0 6.8.2 10.2a57.71 57.71 0 00.8 5.8c.1.8.6 1 1.3 1h12.2a.77.77 0 00.1-.3c-.3-4.7-.6-9.3-1-14a33.41 33.41 0 00-1.4-7 7.49 7.49 0 00-4.8-5 9.25 9.25 0 01-1-.5c5.8-2.4 7.5-4.5 8.2-10.2a32 32 0 00-.4-10.7c-1.5-7.8-5.8-11.4-13.8-11.4zm-25.7 23.5v-12.4h1.5c4.5 0 9-.1 13.4 0 1.3 0 1.5-.4 1.5-1.6-.1-2.8-.1-5.5 0-8.3 0-1.1-.3-1.3-1.4-1.3h-26.9c-.4 0-.8.1-1.3.1v59h30.9v-11.2h-17.8V529h14.5v-10.8c-4.8.1-9.5.1-14.4.1zm127.8 35.6v-21.8a5.87 5.87 0 01.4-2.3c3.9-11.2 7.7-22.4 11.6-33.6.1-.4.3-.8.4-1.3h-10.1a1.24 1.24 0 00-1.4 1.1c-2 6.5-4.1 12.9-6.2 19.4-.1.4-.3.7-.5 1.3-.2-.7-.4-1.1-.5-1.4-2.1-6.4-4.2-12.8-6.2-19.3-.3-.8-.6-1.1-1.5-1.1h-10.7c-.4 0-.7.1-1.2.1a14.24 14.24 0 01.5 1.6c3.9 11 7.9 22 11.8 33.1a7.46 7.46 0 01.4 2.6v20.4c0 1.1.2 1.5 1.4 1.4 3.5-.1 7 0 10.4 0a3.4 3.4 0 011.4-.2zm-63.6-59.1v10.9H1040v48.2h13.1v-48.3h10.4c0-.5.1-.9.1-1.3 0-2.7-.1-5.4 0-8.2 0-1.2-.4-1.4-1.4-1.4h-31.3a5.28 5.28 0 01-1.3.1zm-169.3 59v-59h-12.9v59zm39.8 0c0-.4.1-.7.1-1.1v-56.9c0-1-.4-1.2-1.2-1.2h-10.7c-.3 0-.7.1-1.1.1v59c4.3.1 8.6.1 12.9.1zm-34.9 0h12.4a1.09 1.09 0 00.1-.5v-10.8c0-.8-.4-.9-1.1-.9h-10.7c-.3 0-.5.1-.8.1.1 4.1.1 8 .1 12.1z" transform="translate(-847.41 -494.64)"/>
  <path d="M910.31 494.84H928c8.5 0 13.8 4.8 14.5 13.2a31.44 31.44 0 01-.3 7.5 9.11 9.11 0 01-5.2 7.1.37.37 0 01-.3.1c.1.2.1.3.2.3 4.4 1.7 6.2 5.3 6.9 9.7a29 29 0 01-.5 12.1c-1.5 6.1-5.2 9-11.6 9.1-4.4.1-8.9 0-13.3 0h-6.8a5.7 5.7 0 01-1.3-.1v-59zm12.4 49.1H926c2.4-.1 3.8-1.1 4.4-3.4a14.64 14.64 0 00.2-7.2c-1-5-3.5-5.7-7.9-5.1zm2-25.7c3.4 0 4.7-1.1 5-4.5a24.09 24.09 0 000-3.8c-.3-4.1-1.7-5.3-5.9-5.3-.9 0-1.2.3-1.2 1.2.1 3.5 0 7 0 10.4 0 2.3-.3 2 2.1 2zm66.4-23.4c.5 0 .9-.1 1.3-.1h17.9c8 0 12.3 3.6 13.8 11.4a35.09 35.09 0 01.4 10.7c-.7 5.6-2.4 7.7-8.2 10.2a9.25 9.25 0 001 .5 7.3 7.3 0 014.8 5 43.38 43.38 0 011.4 7c.5 4.6.7 9.3 1 14 0 .1-.1.1-.1.3h-12.2c-.8 0-1.2-.2-1.3-1a57.71 57.71 0 01-.8-5.8c-.2-3.4-.1-6.8-.2-10.2a9.74 9.74 0 00-.2-2.4c-.5-3.3-2.2-4.4-5.7-3.7v23H991c.1-19.6.1-39.2.1-58.9zm13.1 26.8h3.5a3.22 3.22 0 003.2-2.5 21 21 0 00-.1-11.9 3.22 3.22 0 00-2.6-2.4c-1.3-.2-2.7-.1-4.1-.2.1 5.7.1 11.3.1 17zm-38.8-3.3h14.5v10.8h-14.5v13.6h17.8v11.2h-30.9v-59c.4 0 .8-.1 1.3-.1h26.9c1 0 1.4.2 1.4 1.3-.1 2.8-.1 5.5 0 8.3 0 1.2-.2 1.6-1.5 1.6-4.5-.1-9 0-13.4 0h-1.5c-.1 4.1-.1 8.1-.1 12.3zm127.8 35.6c-.5 0-.9.1-1.3.1h-10.4c-1.1 0-1.4-.4-1.4-1.4v-20.4a10.87 10.87 0 00-.4-2.6c-3.9-11-7.9-22.1-11.8-33.1-.2-.5-.3-1-.5-1.6.5 0 .8-.1 1.2-.1h10.7c.9 0 1.2.3 1.5 1.1 2 6.4 4.1 12.9 6.2 19.3.1.4.3.8.5 1.4.2-.6.4-1 .5-1.3 2.1-6.5 4.2-12.9 6.2-19.4a1.19 1.19 0 011.4-1.1c3.3.1 6.6 0 10.1 0a9.29 9.29 0 00-.4 1.3c-3.9 11.2-7.8 22.4-11.6 33.6a6.2 6.2 0 00-.4 2.3v20.4a7.08 7.08 0 00-.1 1.5zm-63.6-59.1h32.6c1.1 0 1.5.2 1.4 1.4-.1 2.7 0 5.4 0 8.2a6.15 6.15 0 01-.1 1.3h-10.4V554H1040v-48.2h-10.4v-11zm-169.3 59h-12.9v-59h12.9zm39.8 0h-12.9v-59c.4 0 .7-.1 1.1-.1H899c.9 0 1.2.2 1.2 1.2v56.9c.01.3-.09.6-.09 1zm-34.9 0v-12.1c.3 0 .6-.1.8-.1h10.7c.6 0 1.1.1 1.1.9v10.8c0 .2-.1.3-.1.5z" transform="translate(-847.41 -494.64)" fill="#fff"/>
  <path class="cls-1" d="M922.71 543.94v-15.8c4.5-.7 6.9.1 7.9 5.1a15.89 15.89 0 01-.2 7.2c-.7 2.3-2 3.4-4.4 3.4-1.1.1-2.2.1-3.3.1zm2-25.7c-2.4 0-2 .3-2.1-2v-10.4c0-.9.3-1.2 1.2-1.2 4.1 0 5.5 1.2 5.9 5.3a24.09 24.09 0 010 3.8c-.3 3.4-1.6 4.5-5 4.5zm79.5 3.4v-17c1.4.1 2.7 0 4.1.2a3.22 3.22 0 012.6 2.4 21 21 0 01.1 11.9 3.33 3.33 0 01-3.2 2.5z" transform="translate(-847.41 -494.64)"/>
</svg>