<svg xmlns="http://www.w3.org/2000/svg" width="180px" height="32px" viewBox="0 0 180 32">
	<style>.st13{fill-rule:evenodd;clip-rule:evenodd}.st14{fill:#584a9e}</style>
	<g id="Layer_2">
		<path class="st14" d="M43.9 18.4v6.3h-3v-17h6.5c1.9 0 3.4.5 4.5 1.5s1.7 2.3 1.7 3.9c0 1.7-.5 3-1.6 3.9s-2.6 1.4-4.6 1.4h-3.5zm0-2.3h3.6c1.1 0 1.9-.2 2.4-.7.6-.5.8-1.2.8-2.1s-.3-1.7-.8-2.2c-.6-.5-1.3-.8-2.3-.8H44l-.1 5.8zm18.7-1.4c-.4-.1-.8-.1-1.2-.1-1.3 0-2.2.5-2.6 1.5v8.6H56V12.1h2.7l.1 1.4c.7-1.1 1.6-1.6 2.9-1.6.4 0 .7.1 1 .2l-.1 2.6zm1.8-5.9c0-.4.1-.8.4-1.1s.7-.4 1.2-.4.9.1 1.2.4c.3.3.4.7.4 1.1s-.1.8-.4 1.1-.7.4-1.2.4-.9-.1-1.2-.4-.4-.6-.4-1.1zm3 16h-2.8V12.1h2.8v12.7zm5.8-12.7l.1 1.3c.9-1 2.1-1.6 3.6-1.6 1.7 0 2.8.6 3.5 1.9.9-1.3 2.2-1.9 3.9-1.9 1.4 0 2.4.4 3.1 1.2s1 1.9 1 3.4v8.3h-2.8v-8.2c0-.8-.2-1.4-.5-1.8-.4-.4-.9-.6-1.7-.6-.6 0-1.2.2-1.6.5s-.7.8-.9 1.4v8.7H78v-8.3c0-1.5-.8-2.2-2.3-2.2-1.1 0-1.9.5-2.4 1.4v9.2h-2.8V12.1h2.7zM96.9 25c-1.8 0-3.3-.6-4.4-1.7s-1.7-2.6-1.7-4.5v-.4c0-1.3.2-2.4.7-3.4s1.2-1.8 2-2.3c.9-.6 1.9-.8 2.9-.8 1.7 0 3.1.5 4 1.6s1.4 2.7 1.4 4.7v1.1h-8.3c.1 1 .4 1.9 1 2.5s1.4.9 2.3.9c1.3 0 2.4-.5 3.2-1.6l1.5 1.5c-.5.8-1.2 1.3-2 1.8-.6.4-1.6.6-2.6.6zm-.3-10.8c-.8 0-1.4.3-1.9.8s-.8 1.3-.9 2.3h5.4V17c-.1-.9-.3-1.7-.8-2.2-.4-.4-1.1-.6-1.8-.6zm21.3 10.6h-3l-7.6-12.1v12.1h-3v-17h3l7.6 12.1V7.7h2.9l.1 17.1zm2.7-6.5c0-1.2.2-2.4.7-3.3.5-1 1.2-1.8 2.1-2.3s1.9-.8 3.1-.8c1.7 0 3.1.5 4.2 1.6s1.6 2.6 1.7 4.4v.7c0 1.2-.2 2.4-.7 3.3-.5 1-1.2 1.7-2.1 2.3s-1.9.8-3.1.8c-1.8 0-3.2-.6-4.3-1.8-1.1-1.2-1.6-2.8-1.6-4.7v-.2zm2.9.3c0 1.3.3 2.3.8 3.1.5.7 1.3 1.1 2.2 1.1s1.7-.4 2.2-1.1.8-1.8.8-3.3c0-1.3-.3-2.3-.8-3s-1.3-1.1-2.2-1.1c-.9 0-1.7.4-2.2 1.1s-.8 1.7-.8 3.2zm10.7-.3c0-1.9.5-3.5 1.4-4.7s2.1-1.8 3.6-1.8c1.3 0 2.4.5 3.2 1.4V6.8h2.8v17.9h-2.6l-.1-1.3c-.8 1-2 1.5-3.4 1.5-1.5 0-2.7-.6-3.6-1.8-.8-1.1-1.3-2.7-1.3-4.8zm2.9.3c0 1.3.2 2.3.7 3s1.2 1.1 2.1 1.1c1.2 0 2-.5 2.5-1.6v-5.4c-.5-1-1.4-1.5-2.5-1.5-.9 0-1.6.4-2.1 1.1-.5.7-.7 1.8-.7 3.3zm16.7 6.4c-1.8 0-3.3-.6-4.4-1.7-1.1-1.1-1.7-2.6-1.7-4.5v-.4c0-1.3.2-2.4.7-3.4s1.2-1.8 2-2.3c.9-.6 1.9-.8 2.9-.8 1.7 0 3.1.5 4 1.6s1.4 2.7 1.4 4.7v1.1h-8.3c.1 1 .4 1.9 1 2.5s1.4.9 2.3.9c1.3 0 2.4-.5 3.2-1.6l1.5 1.5c-.5.8-1.2 1.3-2 1.8-.6.4-1.5.6-2.6.6zm-.3-10.8c-.8 0-1.4.3-1.9.8s-.8 1.3-.9 2.3h5.4V17c-.1-.9-.3-1.7-.8-2.2-.4-.4-1-.6-1.8-.6zm14.7 7.1c0-.5-.2-.9-.6-1.2-.4-.3-1.1-.5-2.1-.7s-1.8-.5-2.4-.8c-1.4-.7-2.1-1.7-2.1-3 0-1.1.5-2 1.4-2.7s2.1-1.1 3.5-1.1c1.5 0 2.7.4 3.7 1.1s1.4 1.7 1.4 2.9h-2.8c0-.5-.2-1-.6-1.4-.4-.4-.9-.5-1.6-.5-.6 0-1.1.1-1.5.4-.4.3-.6.7-.6 1.2 0 .4.2.8.5 1 .4.2 1.1.5 2.2.7 1.1.2 2 .5 2.6.9.6.3 1.1.7 1.4 1.2.3.5.5 1.1.5 1.7 0 1.1-.5 2.1-1.4 2.8s-2.2 1.1-3.7 1.1c-1 0-2-.2-2.8-.6s-1.4-.9-1.9-1.5c-.5-.7-.7-1.4-.7-2.1h2.8c0 .7.3 1.2.8 1.5.5.4 1.1.5 1.9.5.7 0 1.3-.1 1.7-.4.2-.1.4-.5.4-1zM5.7 25.6v-9.1c0-2.5 1.5-4.7 3.8-5.7.7-.3 1.4-.4 2.2-.4h11.1c.6 0 1.2.1 1.8.3h.1V6.3c0-.7-.2-1.3-.5-1.9-.4-.8-1-1.5-1.9-1.9-.5-.2-1-.4-1.5-.4h-6.3c-.6 0-1.1.2-1.6.4-.9.4-1.6.9-2.1 1.8-.4.6-.6 1.2-.6 1.9v2.1c0 .1 0 .1-.1.1H8.2V6.2c0-1.9.7-3.4 2.1-4.6.8-.7 1.8-1.2 2.9-1.4.4-.2.8-.2 1.2-.2h6.5c2.7 0 5 1.8 5.8 4.3.2.6.2 1.1.2 1.7v5.9c0 .1 0 .1-.1.1-.6.5-1.1.9-1.7 1.4-1.2 1-2.4 1.9-3.7 2.9-1.6 1.2-3.3 2.5-4.9 3.6s-3.3 2.2-5 3.2c-1.3.8-2.7 1.4-4.1 1.9-.5.2-.9.3-1.4.4-.1.2-.2.2-.3.2zm23-6.7v6.7c0 1.5-.5 2.9-1.5 4-.9 1.1-2.1 1.7-3.5 2-.4.1-.9.1-1.3.1H9.5c.3-.1.5-.2.8-.3 1.1-.4 2.2-1 3.2-1.5 2.5-1.3 4.9-2.8 7.2-4.5 1.4-1 2.8-2.1 4.2-3.2 1.2-1.1 2.5-2.1 3.8-3.3z"/>
		<path class="st14" d="M4.3 25l-.3.3c-.8.7-1.4 1.5-2 2.4-.2.3-.4.7-.4 1.1-.1.5.1 1 .7 1.1.4.1.7.1 1.1 0 .5-.1 1-.2 1.5-.4s1.1-.4 1.6-.6c.9-.4 1.8-.8 2.6-1.3 1-.5 2-1.1 3-1.6.9-.5 1.8-1.1 2.7-1.6.7-.4 1.4-.9 2.1-1.4.9-.6 1.8-1.2 2.6-1.8.6-.4 1.1-.8 1.6-1.2.5-.4.9-.7 1.4-1.1.6-.5 1.2-1 1.9-1.5.7-.6 1.4-1.1 2-1.7.7-.6 1.4-1.2 2.1-1.9.6-.6 1.3-1.2 1.9-1.8.4-.4.8-.8 1.2-1.3.4-.4.7-.9 1.1-1.4.3-.4.5-.8.7-1.2.1-.3.2-.6.1-1s-.4-.7-.8-.7c-.6-.1-1.3 0-1.9.2-.8.2-1.6.5-2.4.9h-.1l.1-.1c.8-.5 1.7-.9 2.6-1.3.4-.1.7-.3 1.1-.4.5-.2 1.1-.3 1.7-.3.4 0 .8 0 1.2.1.6.2.9.7.8 1.4-.1.6-.3 1.1-.5 1.6-.3.6-.8 1.2-1.3 1.8s-1 1.2-1.6 1.7c-.4.4-.7.8-1.1 1.2l-1.5 1.5c-.6.5-1.1 1.1-1.7 1.6-.6.6-1.3 1.1-1.9 1.7-.4.4-.8.7-1.2 1.1-.5.4-.9.7-1.4 1.1-.4.3-.9.7-1.4 1-1 .7-1.9 1.4-2.9 2.1-1.4 1-2.9 1.9-4.3 2.8-.8.5-1.7 1-2.5 1.5l-2.1 1.2c-.5.3-1.1.6-1.6.8-.5.3-1 .5-1.5.7s-1.1.5-1.6.7-1.1.4-1.6.6c-.6.2-1.2.4-1.8.4-.4 0-.9 0-1.3-.1-.7-.2-1-.6-1-1.1 0-.4.1-.8.3-1.2.3-.6.6-1.1 1-1.6.6-.8 1.4-1.6 2.1-2.3.2-.2.5-.4.9-.7-.1 0 0 0 0 0z"/>
	</g>
</svg>